<svg xmlns="http://www.w3.org/2000/svg" viewBox="0 0 128 128" role="img" aria-label="miaobi.pro icon">
  <defs>
    <linearGradient id="petalA" x1="28" y1="30" x2="102" y2="102" gradientUnits="userSpaceOnUse">
      <stop offset="0" stop-color="#9d5cff"/>
      <stop offset="0.52" stop-color="#2d43e6"/>
      <stop offset="1" stop-color="#10d0c5"/>
    </linearGradient>
    <linearGradient id="petalB" x1="36" y1="18" x2="78" y2="94" gradientUnits="userSpaceOnUse">
      <stop offset="0" stop-color="#b75cff"/>
      <stop offset="0.5" stop-color="#6843f6"/>
      <stop offset="1" stop-color="#1727c3"/>
    </linearGradient>
    <linearGradient id="strokeA" x1="20" y1="16" x2="112" y2="114" gradientUnits="userSpaceOnUse">
      <stop offset="0" stop-color="#1d91ff"/>
      <stop offset="0.48" stop-color="#2932db"/>
      <stop offset="1" stop-color="#12c5c6"/>
    </linearGradient>
  </defs>

  <path d="M64 18c-12 10-19 21-20 35-1 15 7 27 20 36 13-9 21-21 20-36-1-14-8-25-20-35Z" fill="url(#petalB)"/>
  <path d="M38 42c15 0 26 7 32 20-2 15-12 25-28 31-13-10-19-26-16-45 3-4 7-6 12-6Z" fill="url(#petalA)"/>
  <path d="M90 42c-15 0-26 7-32 20 2 15 12 25 28 31 13-10 19-26 16-45-3-4-7-6-12-6Z" fill="url(#petalA)"/>
  <path d="M31 64c17 0 29 8 37 25-5 14-16 23-34 27-14-9-23-23-25-42 6-7 13-10 22-10Z" fill="url(#petalA)"/>
  <path d="M97 64c-17 0-29 8-37 25 5 14 16 23 34 27 14-9 23-23 25-42-6-7-13-10-22-10Z" fill="url(#petalA)"/>

  <path d="M64 52 52 114h24L64 52Z" fill="#ffffff"/>
  <path d="M64 52v62" fill="none" stroke="#1327bd" stroke-width="3" stroke-linecap="round"/>
  <circle cx="64" cy="84" r="5.5" fill="#1327bd"/>
  <circle cx="64" cy="118" r="6.5" fill="#1635dc"/>
  <path d="M35 118c10-3 20-3 29 0M64 118c9-3 19-3 29 0" fill="none" stroke="#1635dc" stroke-width="2.2" stroke-linecap="round"/>

  <path d="M18 66c0-12 4-23 12-31 9-10 21-15 34-15s25 5 34 15c8 8 12 19 12 31" fill="none" stroke="url(#strokeA)" stroke-width="2.5" stroke-linecap="round" stroke-dasharray="18 14"/>
  <circle cx="30" cy="35" r="4.5" fill="#2e8eff"/>
  <circle cx="98" cy="35" r="4.5" fill="#2244e4"/>
  <circle cx="18" cy="66" r="4.5" fill="#2932db"/>
  <circle cx="110" cy="66" r="4.5" fill="#12aee6"/>
  <circle cx="41" cy="25" r="2.5" fill="#2345e9"/>
  <circle cx="87" cy="25" r="2.5" fill="#2345e9"/>

  <path d="M64 4 68 15l11 4-11 4-4 11-4-11-11-4 11-4 4-11Z" fill="url(#petalB)"/>
  <circle cx="50" cy="28" r="1.8" fill="#5b8cff"/>
  <circle cx="78" cy="28" r="1.8" fill="#5b8cff"/>
</svg>
